<svg width="17" height="23" viewBox="0 0 17 23" fill="none" xmlns="http://www.w3.org/2000/svg">
<path d="M17 21.8493V1.14872C16.9993 0.939136 16.9423 0.733701 16.8349 0.554525C16.7276 0.37535 16.5741 0.229221 16.3908 0.131866C16.2076 0.0345117 16.0016 -0.0103829 15.7951 0.00201797C15.5885 0.0144189 15.3892 0.0836437 15.2186 0.202242L0.458968 10.5525C-0.152989 10.9815 -0.152989 12.0142 0.458968 12.4443L15.2186 22.7946C15.3889 22.9144 15.5883 22.9847 15.7952 22.9978C16.002 23.0108 16.2085 22.9662 16.3921 22.8688C16.5758 22.7714 16.7295 22.6248 16.8367 22.4451C16.9438 22.2653 17.0003 22.0593 17 21.8493Z" fill="#FFF7BC"/>
</svg>
